ffmpeg started on 2025-04-30 at 17:23:32
Report written to "D:\Convert\FFMetrics\reports\ssim_report-6.txt"
Log level: 32
Command line:
ffmpeg -hide_banner -nostdin -i "G:\\\xc0\xed\xe8\xec\xe5\\\xce\xed\xe3\xee\xe8\xed\xe3\xe8\\!_37_\xc7\xe8\xec\xe0_2025\\JamClub\\\xcf\xee\xe4\xed\xff\xf2\xe8\xe5 \xf3\xf0\xee\xe2\xed\xff \xe2 \xee\xe4\xe8\xed\xee\xf7\xea\xf3\\\xd2\xc2-2\\JamClub_Ore_dake_Level_Up_na_Ken_Season_2_02_1080p_HEVC.mkv" -i "G:\\\xc0\xed\xe8\xec\xe5\\\xce\xed\xe3\xee\xe8\xed\xe3\xe8\\!_37_\xc7\xe8\xec\xe0_2025\\JamClub\\\xcf\xee\xe4\xed\xff\xf2\xe8\xe5 \xf3\xf0\xee\xe2\xed\xff \xe2 \xee\xe4\xe8\xed\xee\xf7\xea\xf3\\\xd2\xc2-2\\JamClub_Ore_dake_Level_Up_na_Ken_Season_2_02_1080p.mp4" -lavfi "[0:v]settb=AVTB,setpts=PTS-STARTPTS,format=pix_fmts=yuv420p10,fps=24000/1001,scale=1920:1080:flags=bicubic[main];[1:v]settb=AVTB,setpts=PTS-STARTPTS,format=pix_fmts=yuv420p,fps=24000/1001,scale=1920:1080:flags=bicubic[ref];[main][ref]ssim=eof_action=endall:stats_file='D\\:/Convert/FFMetrics/logs/ssim_logfile-6.txt'" -f null -
Input #0, matroska,webm, from 'G:\Аниме\Онгоинги\!_37_Зима_2025\JamClub\Поднятие уровня в одиночку\ТВ-2\JamClub_Ore_dake_Level_Up_na_Ken_Season_2_02_1080p_HEVC.mkv':
  Metadata:
    COMPATIBLE_BRANDS: isomiso2avc1mp41
    MAJOR_BRAND     : isom
    MINOR_VERSION   : 512
    ENCODER         : Lavf61.7.100
  Duration: 00:24:02.27, start: -0.001000, bitrate: 1870 kb/s
  Stream #0:0: Video: hevc (Main 10), yuv420p10le(tv, bt709, progressive), 1920x1080 [SAR 1:1 DAR 16:9], 23.98 fps, 23.98 tbr, 1k tbn (default)
      Metadata:
        HANDLER_NAME    : VideoHandler
        VENDOR_ID       : [0][0][0][0]
        ENCODER         : Lavc61.19.100 libx265
        BPS             : 1672214
        DURATION        : 00:24:02.273708333
        NUMBER_OF_FRAMES: 34580
        NUMBER_OF_BYTES : 301473717
        _STATISTICS_WRITING_APP: mkvpropedit v66.0.0 ('Josie') 64-bit
        _STATISTICS_WRITING_DATE_UTC: 2025-04-30 07:25:33
        _STATISTICS_TAGS: BPS DURATION NUMBER_OF_FRAMES NUMBER_OF_BYTES
  Stream #0:1(eng): Audio: aac (LC), 48000 Hz, stereo, fltp (default)
      Metadata:
        HANDLER_NAME    : SoundHandler
        VENDOR_ID       : [0][0][0][0]
        ENCODER         : Lavc61.19.100 aac
        BPS             : 194261
        DURATION        : 00:24:02.221000000
        NUMBER_OF_FRAMES: 67605
        NUMBER_OF_BYTES : 35020925
        _STATISTICS_WRITING_APP: mkvpropedit v66.0.0 ('Josie') 64-bit
        _STATISTICS_WRITING_DATE_UTC: 2025-04-30 07:25:33
        _STATISTICS_TAGS: BPS DURATION NUMBER_OF_FRAMES NUMBER_OF_BYTES
Input #1, mov,mp4,m4a,3gp,3g2,mj2, from 'G:\Аниме\Онгоинги\!_37_Зима_2025\JamClub\Поднятие уровня в одиночку\ТВ-2\JamClub_Ore_dake_Level_Up_na_Ken_Season_2_02_1080p.mp4':
  Metadata:
    major_brand     : isom
    minor_version   : 512
    compatible_brands: isomiso2avc1mp41
    encoder         : Lavf60.16.100
  Duration: 00:24:02.24, start: 0.000000, bitrate: 5239 kb/s
  Stream #1:0[0x1](und): Video: h264 (High) (avc1 / 0x31637661), yuv420p(progressive), 1920x1080 [SAR 1:1 DAR 16:9], 5041 kb/s, 23.98 fps, 23.98 tbr, 90k tbn (default)
      Metadata:
        handler_name    : VideoHandler
        vendor_id       : [0][0][0][0]
  Stream #1:1[0x2](eng): Audio: aac (LC) (mp4a / 0x6134706D), 48000 Hz, stereo, fltp, 191 kb/s (default)
      Metadata:
        handler_name    : SoundHandler
        vendor_id       : [0][0][0][0]
Stream mapping:
  Stream #0:0 (hevc) -> settb:default
  Stream #1:0 (h264) -> settb:default
  ssim:default -> Stream #0:0 (wrapped_avframe)
  Stream #0:1 -> #0:1 (aac (native) -> pcm_s16le (native))
Output #0, null, to 'pipe:':
  Metadata:
    COMPATIBLE_BRANDS: isomiso2avc1mp41
    MAJOR_BRAND     : isom
    MINOR_VERSION   : 512
    encoder         : Lavf61.7.100
  Stream #0:0: Video: wrapped_avframe, yuv420p10le(tv, bt709, progressive), 1920x1080 [SAR 1:1 DAR 16:9], q=2-31, 200 kb/s, 23.98 fps, 23.98 tbn
      Metadata:
        encoder         : Lavc61.19.100 wrapped_avframe
  Stream #0:1(eng): Audio: pcm_s16le, 48000 Hz, stereo, s16, 1536 kb/s (default)
      Metadata:
        HANDLER_NAME    : SoundHandler
        VENDOR_ID       : [0][0][0][0]
        _STATISTICS_TAGS: BPS DURATION NUMBER_OF_FRAMES NUMBER_OF_BYTES
        BPS             : 194261
        DURATION        : 00:24:02.221000000
        NUMBER_OF_FRAMES: 67605
        NUMBER_OF_BYTES : 35020925
        _STATISTICS_WRITING_APP: mkvpropedit v66.0.0 ('Josie') 64-bit
        _STATISTICS_WRITING_DATE_UTC: 2025-04-30 07:25:33
        encoder         : Lavc61.19.100 pcm_s16le
frame=  112 fps=0.0 q=-0.0 size=N/A time=00:00:04.67 bitrate=N/A speed=9.14x    frame=  275 fps=265 q=-0.0 size=N/A time=00:00:11.46 bitrate=N/A speed=  11x    frame=  473 fps=306 q=-0.0 size=N/A time=00:00:19.72 bitrate=N/A speed=12.7x    frame=  689 fps=335 q=-0.0 size=N/A time=00:00:28.73 bitrate=N/A speed=  14x    frame=  892 fps=345 q=-0.0 size=N/A time=00:00:37.20 bitrate=N/A speed=14.4x    frame= 1076 fps=348 q=-0.0 size=N/A time=00:00:44.87 bitrate=N/A speed=14.5x    frame= 1267 fps=350 q=-0.0 size=N/A time=00:00:52.84 bitrate=N/A speed=14.6x    frame= 1472 fps=357 q=-0.0 size=N/A time=00:01:01.39 bitrate=N/A speed=14.9x    frame= 1671 fps=360 q=-0.0 size=N/A time=00:01:09.69 bitrate=N/A speed=  15x    frame= 1864 fps=361 q=-0.0 size=N/A time=00:01:17.74 bitrate=N/A speed=15.1x    frame= 2023 fps=357 q=-0.0 size=N/A time=00:01:24.37 bitrate=N/A speed=14.9x    frame= 2201 fps=355 q=-0.0 size=N/A time=00:01:31.80 bitrate=N/A speed=14.8x    frame= 2388 fps=356 q=-0.0 size=N/A time=00:01:39.59 bitrate=N/A speed=14.8x    frame= 2554 fps=354 q=-0.0 size=N/A time=00:01:46.52 bitrate=N/A speed=14.8x    frame= 2735 fps=353 q=-0.0 size=N/A time=00:01:54.07 bitrate=N/A speed=14.7x    frame= 2896 fps=351 q=-0.0 size=N/A time=00:02:00.78 bitrate=N/A speed=14.6x    frame= 3050 fps=348 q=-0.0 size=N/A time=00:02:07.21 bitrate=N/A speed=14.5x    frame= 3263 fps=351 q=-0.0 size=N/A time=00:02:16.09 bitrate=N/A speed=14.7x    frame= 3456 fps=353 q=-0.0 size=N/A time=00:02:24.14 bitrate=N/A speed=14.7x    frame= 3697 fps=358 q=-0.0 size=N/A time=00:02:34.19 bitrate=N/A speed=14.9x    frame= 3944 fps=364 q=-0.0 size=N/A time=00:02:44.49 bitrate=N/A speed=15.2x    frame= 4200 fps=370 q=-0.0 size=N/A time=00:02:55.17 bitrate=N/A speed=15.4x    frame= 4439 fps=374 q=-0.0 size=N/A time=00:03:05.14 bitrate=N/A speed=15.6x    frame= 4664 fps=377 q=-0.0 size=N/A time=00:03:14.56 bitrate=N/A speed=15.7x    frame= 4910 fps=381 q=-0.0 size=N/A time=00:03:24.78 bitrate=N/A speed=15.9x    frame= 5108 fps=381 q=-0.0 size=N/A time=00:03:33.04 bitrate=N/A speed=15.9x    frame= 5317 fps=382 q=-0.0 size=N/A time=00:03:41.76 bitrate=N/A speed=15.9x    frame= 5504 fps=381 q=-0.0 size=N/A time=00:03:49.56 bitrate=N/A speed=15.9x    frame= 5729 fps=383 q=-0.0 size=N/A time=00:03:58.94 bitrate=N/A speed=  16x    frame= 5924 fps=383 q=-0.0 size=N/A time=00:04:07.08 bitrate=N/A speed=  16x    frame= 6145 fps=385 q=-0.0 size=N/A time=00:04:16.29 bitrate=N/A speed=  16x    frame= 6371 fps=386 q=-0.0 size=N/A time=00:04:25.72 bitrate=N/A speed=16.1x    frame= 6596 fps=388 q=-0.0 size=N/A time=00:04:35.10 bitrate=N/A speed=16.2x    frame= 6848 fps=391 q=-0.0 size=N/A time=00:04:45.61 bitrate=N/A speed=16.3x    frame= 7082 fps=392 q=-0.0 size=N/A time=00:04:55.37 bitrate=N/A speed=16.4x    frame= 7334 fps=395 q=-0.0 size=N/A time=00:05:05.88 bitrate=N/A speed=16.5x    frame= 7586 fps=398 q=-0.0 size=N/A time=00:05:16.39 bitrate=N/A speed=16.6x    frame= 7836 fps=400 q=-0.0 size=N/A time=00:05:26.82 bitrate=N/A speed=16.7x    frame= 8086 fps=402 q=-0.0 size=N/A time=00:05:37.25 bitrate=N/A speed=16.8x    frame= 8318 fps=403 q=-0.0 size=N/A time=00:05:46.92 bitrate=N/A speed=16.8x    frame= 8534 fps=404 q=-0.0 size=N/A time=00:05:55.93 bitrate=N/A speed=16.8x    frame= 8779 fps=405 q=-0.0 size=N/A time=00:06:06.15 bitrate=N/A speed=16.9x    frame= 8971 fps=405 q=-0.0 size=N/A time=00:06:14.16 bitrate=N/A speed=16.9x    frame= 9204 fps=406 q=-0.0 size=N/A time=00:06:23.88 bitrate=N/A speed=16.9x    frame= 9424 fps=406 q=-0.0 size=N/A time=00:06:33.05 bitrate=N/A speed=16.9x    frame= 9666 fps=407 q=-0.0 size=N/A time=00:06:43.15 bitrate=N/A speed=  17x    frame= 9893 fps=408 q=-0.0 size=N/A time=00:06:52.62 bitrate=N/A speed=  17x    frame=10127 fps=409 q=-0.0 size=N/A time=00:07:02.38 bitrate=N/A speed=17.1x    frame=10352 fps=410 q=-0.0 size=N/A time=00:07:11.76 bitrate=N/A speed=17.1x    frame=10582 fps=410 q=-0.0 size=N/A time=00:07:21.35 bitrate=N/A speed=17.1x    frame=10837 fps=412 q=-0.0 size=N/A time=00:07:31.99 bitrate=N/A speed=17.2x    frame=11095 fps=414 q=-0.0 size=N/A time=00:07:42.75 bitrate=N/A speed=17.3x    frame=11308 fps=414 q=-0.0 size=N/A time=00:07:51.63 bitrate=N/A speed=17.3x    frame=11547 fps=415 q=-0.0 size=N/A time=00:08:01.60 bitrate=N/A speed=17.3x    frame=11760 fps=415 q=-0.0 size=N/A time=00:08:10.49 bitrate=N/A speed=17.3x    frame=11948 fps=414 q=-0.0 size=N/A time=00:08:18.33 bitrate=N/A speed=17.3x    frame=12216 fps=416 q=-0.0 size=N/A time=00:08:29.50 bitrate=N/A speed=17.3x    frame=12471 fps=417 q=-0.0 size=N/A time=00:08:40.14 bitrate=N/A speed=17.4x    frame=12715 fps=418 q=-0.0 size=N/A time=00:08:50.32 bitrate=N/A speed=17.4x    frame=12947 fps=418 q=-0.0 size=N/A time=00:08:59.99 bitrate=N/A speed=17.5x    frame=13157 fps=418 q=-0.0 size=N/A time=00:09:08.75 bitrate=N/A speed=17.4x    frame=13408 fps=419 q=-0.0 size=N/A time=00:09:19.22 bitrate=N/A speed=17.5x    frame=13665 fps=421 q=-0.0 size=N/A time=00:09:29.94 bitrate=N/A speed=17.5x    frame=13915 fps=422 q=-0.0 size=N/A time=00:09:40.37 bitrate=N/A speed=17.6x    frame=14123 fps=421 q=-0.0 size=N/A time=00:09:49.04 bitrate=N/A speed=17.6x    frame=14318 fps=421 q=-0.0 size=N/A time=00:09:57.17 bitrate=N/A speed=17.5x    frame=14522 fps=420 q=-0.0 size=N/A time=00:10:05.68 bitrate=N/A speed=17.5x    frame=14693 fps=419 q=-0.0 size=N/A time=00:10:12.82 bitrate=N/A speed=17.5x    frame=14869 fps=418 q=-0.0 size=N/A time=00:10:20.16 bitrate=N/A speed=17.4x    frame=15076 fps=418 q=-0.0 size=N/A time=00:10:28.79 bitrate=N/A speed=17.4x    frame=15281 fps=417 q=-0.0 size=N/A time=00:10:37.34 bitrate=N/A speed=17.4x    frame=15450 fps=416 q=-0.0 size=N/A time=00:10:44.39 bitrate=N/A speed=17.4x    frame=15608 fps=415 q=-0.0 size=N/A time=00:10:50.98 bitrate=N/A speed=17.3x    frame=15828 fps=415 q=-0.0 size=N/A time=00:11:00.15 bitrate=N/A speed=17.3x    frame=16036 fps=415 q=-0.0 size=N/A time=00:11:08.83 bitrate=N/A speed=17.3x    frame=16261 fps=415 q=-0.0 size=N/A time=00:11:18.21 bitrate=N/A speed=17.3x    frame=16473 fps=415 q=-0.0 size=N/A time=00:11:27.06 bitrate=N/A speed=17.3x    frame=16676 fps=415 q=-0.0 size=N/A time=00:11:35.52 bitrate=N/A speed=17.3x    frame=16921 fps=415 q=-0.0 size=N/A time=00:11:45.74 bitrate=N/A speed=17.3x    frame=17130 fps=415 q=-0.0 size=N/A time=00:11:54.46 bitrate=N/A speed=17.3x    frame=17365 fps=416 q=-0.0 size=N/A time=00:12:04.26 bitrate=N/A speed=17.3x    frame=17573 fps=416 q=-0.0 size=N/A time=00:12:12.94 bitrate=N/A speed=17.3x    frame=17749 fps=415 q=-0.0 size=N/A time=00:12:20.28 bitrate=N/A speed=17.3x    frame=17962 fps=415 q=-0.0 size=N/A time=00:12:29.16 bitrate=N/A speed=17.3x    frame=18165 fps=414 q=-0.0 size=N/A time=00:12:37.63 bitrate=N/A speed=17.3x    frame=18350 fps=414 q=-0.0 size=N/A time=00:12:45.34 bitrate=N/A speed=17.3x    frame=18571 fps=414 q=-0.0 size=N/A time=00:12:54.56 bitrate=N/A speed=17.3x    frame=18798 fps=414 q=-0.0 size=N/A time=00:13:04.03 bitrate=N/A speed=17.3x    frame=19042 fps=415 q=-0.0 size=N/A time=00:13:14.21 bitrate=N/A speed=17.3x    frame=19246 fps=415 q=-0.0 size=N/A time=00:13:22.71 bitrate=N/A speed=17.3x    frame=19451 fps=415 q=-0.0 size=N/A time=00:13:31.26 bitrate=N/A speed=17.3x    frame=19655 fps=414 q=-0.0 size=N/A time=00:13:39.77 bitrate=N/A speed=17.3x    frame=19858 fps=414 q=-0.0 size=N/A time=00:13:48.24 bitrate=N/A speed=17.3x    frame=20001 fps=413 q=-0.0 size=N/A time=00:13:54.20 bitrate=N/A speed=17.2x    frame=20194 fps=412 q=-0.0 size=N/A time=00:14:02.25 bitrate=N/A speed=17.2x    frame=20408 fps=412 q=-0.0 size=N/A time=00:14:11.18 bitrate=N/A speed=17.2x    frame=20635 fps=413 q=-0.0 size=N/A time=00:14:20.65 bitrate=N/A speed=17.2x    frame=20858 fps=413 q=-0.0 size=N/A time=00:14:29.95 bitrate=N/A speed=17.2x    frame=21019 fps=412 q=-0.0 size=N/A time=00:14:36.66 bitrate=N/A speed=17.2x    frame=21208 fps=411 q=-0.0 size=N/A time=00:14:44.55 bitrate=N/A speed=17.2x    frame=21418 fps=411 q=-0.0 size=N/A time=00:14:53.30 bitrate=N/A speed=17.2x    frame=21646 fps=411 q=-0.0 size=N/A time=00:15:02.81 bitrate=N/A speed=17.2x    frame=21880 fps=412 q=-0.0 size=N/A time=00:15:12.57 bitrate=N/A speed=17.2x    frame=22091 fps=412 q=-0.0 size=N/A time=00:15:21.37 bitrate=N/A speed=17.2x    frame=22279 fps=411 q=-0.0 size=N/A time=00:15:29.21 bitrate=N/A speed=17.2x    frame=22464 fps=411 q=-0.0 size=N/A time=00:15:36.93 bitrate=N/A speed=17.1x    frame=22672 fps=411 q=-0.0 size=N/A time=00:15:45.61 bitrate=N/A speed=17.1x    frame=22889 fps=411 q=-0.0 size=N/A time=00:15:54.66 bitrate=N/A speed=17.1x    frame=23109 fps=411 q=-0.0 size=N/A time=00:16:03.83 bitrate=N/A speed=17.1x    frame=23327 fps=411 q=-0.0 size=N/A time=00:16:12.93 bitrate=N/A speed=17.2x    frame=23566 fps=412 q=-0.0 size=N/A time=00:16:22.89 bitrate=N/A speed=17.2x    frame=23824 fps=412 q=-0.0 size=N/A time=00:16:33.65 bitrate=N/A speed=17.2x    frame=24036 fps=413 q=-0.0 size=N/A time=00:16:42.50 bitrate=N/A speed=17.2x    frame=24261 fps=413 q=-0.0 size=N/A time=00:16:51.88 bitrate=N/A speed=17.2x    frame=24477 fps=413 q=-0.0 size=N/A time=00:17:00.89 bitrate=N/A speed=17.2x    frame=24711 fps=413 q=-0.0 size=N/A time=00:17:10.65 bitrate=N/A speed=17.2x    frame=24934 fps=413 q=-0.0 size=N/A time=00:17:19.95 bitrate=N/A speed=17.2x    frame=25182 fps=414 q=-0.0 size=N/A time=00:17:30.29 bitrate=N/A speed=17.3x    frame=25448 fps=415 q=-0.0 size=N/A time=00:17:41.39 bitrate=N/A speed=17.3x    frame=25698 fps=415 q=-0.0 size=N/A time=00:17:51.82 bitrate=N/A speed=17.3x    frame=25932 fps=416 q=-0.0 size=N/A time=00:18:01.58 bitrate=N/A speed=17.3x    frame=26162 fps=416 q=-0.0 size=N/A time=00:18:11.17 bitrate=N/A speed=17.3x    frame=26385 fps=416 q=-0.0 size=N/A time=00:18:20.47 bitrate=N/A speed=17.3x    frame=26631 fps=417 q=-0.0 size=N/A time=00:18:30.73 bitrate=N/A speed=17.4x    frame=26890 fps=417 q=-0.0 size=N/A time=00:18:41.53 bitrate=N/A speed=17.4x    frame=27134 fps=418 q=-0.0 size=N/A time=00:18:51.71 bitrate=N/A speed=17.4x    frame=27392 fps=418 q=-0.0 size=N/A time=00:19:02.47 bitrate=N/A speed=17.4x    frame=27642 fps=419 q=-0.0 size=N/A time=00:19:12.90 bitrate=N/A speed=17.5x    frame=27920 fps=420 q=-0.0 size=N/A time=00:19:24.49 bitrate=N/A speed=17.5x    frame=28180 fps=420 q=-0.0 size=N/A time=00:19:35.34 bitrate=N/A speed=17.5x    frame=28452 fps=421 q=-0.0 size=N/A time=00:19:46.68 bitrate=N/A speed=17.6x    frame=28719 fps=422 q=-0.0 size=N/A time=00:19:57.82 bitrate=N/A speed=17.6x    frame=28993 fps=423 q=-0.0 size=N/A time=00:20:09.24 bitrate=N/A speed=17.6x    frame=29261 fps=424 q=-0.0 size=N/A time=00:20:20.42 bitrate=N/A speed=17.7x    frame=29542 fps=424 q=-0.0 size=N/A time=00:20:32.14 bitrate=N/A speed=17.7x    frame=29782 fps=425 q=-0.0 size=N/A time=00:20:42.15 bitrate=N/A speed=17.7x    frame=30021 fps=425 q=-0.0 size=N/A time=00:20:52.12 bitrate=N/A speed=17.7x    frame=30226 fps=425 q=-0.0 size=N/A time=00:21:00.67 bitrate=N/A speed=17.7x    frame=30462 fps=425 q=-0.0 size=N/A time=00:21:10.51 bitrate=N/A speed=17.7x    frame=30726 fps=426 q=-0.0 size=N/A time=00:21:21.53 bitrate=N/A speed=17.8x    frame=30971 fps=426 q=-0.0 size=N/A time=00:21:31.74 bitrate=N/A speed=17.8x    frame=31218 fps=426 q=-0.0 size=N/A time=00:21:42.05 bitrate=N/A speed=17.8x    frame=31457 fps=427 q=-0.0 size=N/A time=00:21:52.01 bitrate=N/A speed=17.8x    frame=31682 fps=427 q=-0.0 size=N/A time=00:22:01.40 bitrate=N/A speed=17.8x    frame=31961 fps=427 q=-0.0 size=N/A time=00:22:13.04 bitrate=N/A speed=17.8x    frame=32208 fps=428 q=-0.0 size=N/A time=00:22:23.34 bitrate=N/A speed=17.8x    frame=32404 fps=427 q=-0.0 size=N/A time=00:22:31.51 bitrate=N/A speed=17.8x    frame=32611 fps=427 q=-0.0 size=N/A time=00:22:40.15 bitrate=N/A speed=17.8x    frame=32843 fps=427 q=-0.0 size=N/A time=00:22:49.82 bitrate=N/A speed=17.8x    frame=33043 fps=427 q=-0.0 size=N/A time=00:22:58.16 bitrate=N/A speed=17.8x    frame=33263 fps=427 q=-0.0 size=N/A time=00:23:07.34 bitrate=N/A speed=17.8x    frame=33469 fps=427 q=-0.0 size=N/A time=00:23:15.93 bitrate=N/A speed=17.8x    frame=33624 fps=426 q=-0.0 size=N/A time=00:23:22.40 bitrate=N/A speed=17.8x    frame=33802 fps=426 q=-0.0 size=N/A time=00:23:29.82 bitrate=N/A speed=17.8x    frame=33989 fps=425 q=-0.0 size=N/A time=00:23:37.62 bitrate=N/A speed=17.7x    frame=34200 fps=425 q=-0.0 size=N/A time=00:23:46.42 bitrate=N/A speed=17.7x    frame=34405 fps=425 q=-0.0 size=N/A time=00:23:54.97 bitrate=N/A speed=17.7x    [Parsed_ssim_10 @ 000001fd0d1fcf00] SSIM Y:0.994060 (22.261940) U:0.993006 (21.552482) V:0.992731 (21.385032) All:0.993663 (21.980836)
[out#0/null @ 000001fd0be7ec00] video:14859KiB audio:270420KiB subtitle:0KiB other streams:0KiB global headers:0KiB muxing overhead: unknown
frame=34580 fps=424 q=-0.0 Lsize=N/A time=00:24:02.24 bitrate=N/A speed=17.7x    
